<svg xmlns="http://www.w3.org/2000/svg" viewBox="-168 -168 336 336" width="512" height="512">
  <defs>
    <linearGradient id="grad1" x1="0%" y1="0%" x2="100%" y2="0%">
      <stop offset="0%" stop-color="#38bdf8" />
      <stop offset="100%" stop-color="#34d399" />
    </linearGradient>
    <linearGradient id="bgGrad" x1="0%" y1="0%" x2="100%" y2="100%">
      <stop offset="0%" stop-color="#0f172a" />
      <stop offset="100%" stop-color="#1e293b" />
    </linearGradient>
    <g id="fish-outline">
      <path d="M 15 0 Q 80 -50 160 25 M 15 0 Q 80 50 160 -25"
            fill="none" stroke="url(#grad1)" stroke-width="11" stroke-linecap="round"/>
    </g>
  </defs>

  <!-- Dark navy background -->
  <rect x="-168" y="-168" width="336" height="336" rx="60" ry="60" fill="url(#bgGrad)" />

  <g transform="rotate(-90)">
    <!-- Section 1 -->
    <g transform="rotate(0)">
      <use href="#fish-outline" />
      <line x1="40" y1="-18.77" x2="40" y2="18.77" stroke="#34d399" stroke-width="4" stroke-linecap="round"/>
      <line x1="56" y1="-23.69" x2="56" y2="23.69" stroke="#38bdf8" stroke-width="4" stroke-linecap="round"/>
      <line x1="72" y1="-25.76" x2="72" y2="25.76" stroke="#34d399" stroke-width="4" stroke-linecap="round"/>
      <line x1="88" y1="-23.78" x2="88" y2="23.78" stroke="#38bdf8" stroke-width="4" stroke-linecap="round"/>
      <line x1="104" y1="-18.73" x2="104" y2="18.73" stroke="#34d399" stroke-width="4" stroke-linecap="round"/>
      <line x1="120" y1="-12.75" x2="120" y2="12.75" stroke="#38bdf8" stroke-width="4" stroke-linecap="round"/>
    </g>
    <!-- Section 2 -->
    <g transform="rotate(120)">
      <use href="#fish-outline" />
      <line x1="40" y1="-18.79" x2="40" y2="18.79" stroke="#34d399" stroke-width="4" stroke-linecap="round"/>
      <line x1="56" y1="-23.86" x2="56" y2="23.86" stroke="#38bdf8" stroke-width="4" stroke-linecap="round"/>
      <line x1="72" y1="-25.50" x2="72" y2="25.50" stroke="#34d399" stroke-width="4" stroke-linecap="round"/>
      <line x1="88" y1="-23.53" x2="88" y2="23.53" stroke="#38bdf8" stroke-width="4" stroke-linecap="round"/>
      <line x1="104" y1="-18.51" x2="104" y2="18.51" stroke="#34d399" stroke-width="4" stroke-linecap="round"/>
      <line x1="120" y1="-12.53" x2="120" y2="12.53" stroke="#38bdf8" stroke-width="4" stroke-linecap="round"/>
    </g>
    <!-- Section 3 -->
    <g transform="rotate(240)">
      <use href="#fish-outline" />
      <line x1="40" y1="-18.48" x2="40" y2="18.48" stroke="#34d399" stroke-width="4" stroke-linecap="round"/>
      <line x1="56" y1="-23.54" x2="56" y2="23.54" stroke="#38bdf8" stroke-width="4" stroke-linecap="round"/>
      <line x1="72" y1="-25.52" x2="72" y2="25.52" stroke="#34d399" stroke-width="4" stroke-linecap="round"/>
      <line x1="88" y1="-23.54" x2="88" y2="23.54" stroke="#38bdf8" stroke-width="4" stroke-linecap="round"/>
      <line x1="104" y1="-18.54" x2="104" y2="18.54" stroke="#34d399" stroke-width="4" stroke-linecap="round"/>
      <line x1="120" y1="-12.52" x2="120" y2="12.52" stroke="#38bdf8" stroke-width="4" stroke-linecap="round"/>
    </g>
    <circle cx="0" cy="0" r="10" fill="#38bdf8" />
  </g>
</svg>
